<?xml version="1.0" standalone="no"?>
<!DOCTYPE svg PUBLIC "-//W3C//DTD SVG 20010904//EN"
 "http://www.w3.org/TR/2001/REC-SVG-20010904/DTD/svg10.dtd">
<svg version="1.0" xmlns="http://www.w3.org/2000/svg"
 width="256.000000pt" height="256.000000pt" viewBox="0 0 256.000000 256.000000"
 preserveAspectRatio="xMidYMid meet">

<g transform="translate(0.000000,256.000000) scale(0.100000,-0.100000)"
fill="#000000" stroke="none">
<path d="M1228 2395 c-3 -4 -42 -11 -85 -16 -127 -14 -163 -21 -169 -30 -3 -5
-16 -9 -29 -9 -13 0 -27 -4 -30 -10 -3 -5 -17 -10 -30 -10 -13 0 -27 -4 -30
-10 -3 -5 -15 -10 -26 -10 -10 0 -19 -4 -19 -10 0 -5 -9 -10 -20 -10 -11 0
-20 -3 -20 -8 0 -4 -15 -13 -32 -21 -137 -59 -370 -292 -429 -428 -8 -18 -17
-33 -21 -33 -5 0 -8 -9 -8 -20 0 -11 -4 -20 -10 -20 -5 0 -10 -9 -10 -19 0
-11 -5 -23 -10 -26 -6 -3 -10 -17 -10 -30 0 -13 -4 -27 -10 -30 -5 -3 -10 -17
-10 -30 0 -13 -4 -26 -9 -29 -5 -3 -12 -25 -15 -48 -34 -230 -35 -253 -18
-383 20 -154 24 -175 33 -181 5 -3 9 -16 9 -29 0 -13 5 -27 10 -30 6 -3 10
-13 10 -21 0 -18 59 -144 76 -161 15 -15 24 -6 24 23 0 13 4 26 10 29 5 3 10
19 10 36 0 16 5 29 10 29 6 0 10 13 10 29 0 17 5 33 10 36 6 3 10 17 10 30 0
13 5 27 10 30 6 3 10 17 10 30 0 13 5 27 10 30 6 3 10 15 10 26 0 10 4 27 9
37 5 9 42 118 81 242 40 124 75 234 80 245 4 11 12 36 18 55 57 187 135 416
145 422 17 11 129 10 147 -2 12 -7 12 -12 2 -22 -6 -6 -12 -22 -12 -34 0 -13
-4 -26 -10 -29 -5 -3 -10 -17 -10 -30 0 -13 -4 -27 -10 -30 -5 -3 -10 -17 -10
-30 0 -13 -4 -27 -10 -30 -5 -3 -10 -19 -10 -35 0 -16 -4 -32 -10 -35 -5 -3
-10 -17 -10 -30 0 -13 -4 -27 -10 -30 -5 -3 -10 -15 -10 -26 0 -10 -4 -27 -9
-37 -5 -9 -46 -132 -91 -272 -45 -140 -86 -266 -90 -280 -53 -156 -180 -559
-180 -568 0 -20 -37 -32 -105 -32 -59 0 -65 -2 -56 -18 14 -26 129 -149 161
-172 l28 -20 21 67 c12 38 25 73 29 80 6 10 30 -5 143 -90 82 -63 309 -157
376 -157 17 0 33 -5 35 -11 3 -8 65 -12 208 -12 143 0 205 4 208 12 2 6 19 11
38 11 19 0 42 4 52 9 9 5 35 14 57 21 113 34 280 128 360 202 17 15 33 28 36
28 9 0 29 -48 29 -70 0 -10 5 -22 10 -25 6 -3 10 -17 10 -30 0 -13 4 -27 10
-30 15 -9 190 171 190 195 0 6 -30 10 -69 10 -43 0 -72 5 -78 12 -6 7 -29 74
-53 148 -23 74 -77 241 -120 370 -43 130 -81 252 -85 273 -4 20 -11 37 -16 37
-5 0 -9 11 -9 25 0 14 -4 33 -9 43 -5 9 -32 91 -61 182 -29 91 -56 173 -61
182 -5 10 -9 27 -9 37 0 11 -4 23 -10 26 -5 3 -10 17 -10 30 0 13 -4 27 -10
30 -5 3 -10 17 -10 30 0 13 -4 27 -10 30 -5 3 -10 17 -10 30 0 13 -4 27 -10
30 -5 3 -10 15 -10 26 0 17 7 19 73 19 39 0 77 -4 83 -8 6 -4 30 -65 53 -137
135 -420 244 -752 252 -767 5 -10 9 -29 9 -43 0 -14 5 -25 10 -25 6 0 10 -13
10 -30 0 -16 5 -30 10 -30 6 0 10 -13 10 -29 0 -17 5 -33 10 -36 6 -3 10 -17
10 -30 0 -13 5 -27 10 -30 6 -3 10 -15 10 -26 0 -10 4 -27 9 -37 5 -9 15 -37
22 -62 7 -25 14 -49 17 -53 5 -11 44 48 62 93 7 19 16 40 20 45 3 6 12 30 19
55 7 25 17 53 22 62 5 10 9 33 9 52 0 19 5 36 11 38 16 5 16 411 0 416 -6 2
-11 18 -11 35 0 27 -9 64 -30 122 -29 81 -102 229 -121 245 -3 3 -21 28 -39
55 -44 64 -161 181 -225 225 -27 18 -52 36 -55 39 -6 7 -40 27 -95 55 -22 12
-42 23 -45 26 -3 3 -25 12 -50 20 -25 7 -49 17 -54 22 -6 4 -20 8 -32 8 -13 0
-25 4 -28 9 -6 9 -34 14 -161 30 -159 20 -190 23 -197 16z m286 -331 c9 -3 16
-14 16 -24 0 -11 5 -22 10 -25 6 -3 10 -17 10 -30 0 -13 5 -27 10 -30 6 -3 10
-19 10 -35 0 -16 5 -32 10 -35 6 -3 10 -15 10 -26 0 -10 5 -28 10 -39 6 -11
15 -29 20 -40 6 -11 10 -30 10 -43 0 -13 5 -28 12 -35 18 -18 -8 -23 -93 -20
-68 3 -74 5 -77 26 -2 12 -8 22 -13 22 -5 0 -9 14 -9 30 0 17 -4 30 -10 30 -5
0 -10 14 -10 30 0 17 -4 30 -10 30 -5 0 -10 11 -10 25 l0 25 -130 0 c-122 0
-130 -1 -130 -19 0 -11 -4 -23 -10 -26 -5 -3 -10 -17 -10 -30 0 -13 -4 -27
-10 -30 -5 -3 -10 -19 -10 -36 0 -16 -4 -29 -10 -29 -5 0 -10 -9 -10 -19 0
-25 -19 -31 -100 -31 -68 0 -93 11 -71 33 6 6 11 21 11 33 0 13 5 26 10 29 6
3 10 17 10 30 0 13 5 27 10 30 6 3 10 17 10 30 0 13 5 27 10 30 6 3 10 17 10
30 0 13 5 27 10 30 6 3 10 15 10 26 0 10 4 27 9 37 5 9 12 25 15 35 5 16 25
17 235 17 126 0 236 -3 245 -6z m155 -487 c12 -15 51 -132 51 -153 0 -11 -34
-14 -175 -14 l-175 0 0 -315 0 -315 -90 0 -90 0 0 315 0 315 -174 0 c-124 0
-175 3 -178 12 -6 17 40 150 54 160 7 4 182 8 389 8 303 0 379 -3 388 -13z
m-668 -269 c11 -11 19 -25 19 -29 0 -5 17 -25 38 -46 l37 -37 4 -124 c3 -134
-4 -161 -34 -116 -10 16 -29 39 -42 51 -12 13 -23 28 -23 33 0 5 -16 25 -35
44 -19 20 -35 43 -35 53 0 12 -6 8 -20 -15 -11 -18 -20 -41 -20 -52 0 -11 -4
-20 -10 -20 -5 0 -10 -13 -10 -30 0 -16 -4 -30 -10 -30 -5 0 -10 -11 -10 -25
0 -14 -4 -33 -9 -43 -5 -9 -14 -35 -20 -57 -30 -100 -24 -95 -112 -95 -43 0
-80 4 -84 9 -3 5 -1 20 4 33 9 22 57 170 115 358 15 47 34 102 43 123 l16 37
90 0 c79 0 92 -2 108 -22z m757 2 c12 -12 22 -27 22 -34 0 -7 35 -120 79 -252
55 -167 75 -241 67 -246 -6 -4 -43 -8 -82 -8 -83 0 -68 -22 -139 194 -47 141
-74 205 -75 175 0 -9 -12 -29 -28 -45 -15 -16 -38 -45 -52 -64 -13 -19 -31
-42 -40 -50 -9 -8 -19 -23 -23 -32 -4 -11 -12 -15 -22 -12 -12 5 -15 27 -15
120 0 69 4 114 10 114 6 0 10 7 10 16 0 9 14 29 30 44 17 15 30 33 30 39 0 7
10 23 23 36 20 21 31 24 103 24 67 1 84 -2 102 -19z m210 -645 c11 -10 51
-139 46 -147 -3 -4 -336 -8 -740 -8 -790 0 -751 -3 -725 48 5 9 15 37 22 62 7
25 16 47 20 50 9 7 1370 2 1377 -5z"/>
</g>
</svg>
